<?xml version="1.0" encoding="iso-8859-1"?>
<!DOCTYPE svg PUBLIC "-//W3C//DTD SVG 1.1//EN" "http://www.w3.org/Graphics/SVG/1.1/DTD/svg11.dtd">
<svg version="1.1" id="Capa_1" xmlns="http://www.w3.org/2000/svg" xmlns:xlink="http://www.w3.org/1999/xlink" x="0px" y="0px"
	 viewBox="0 0 475.314 475.314" style="enable-background:new 0 0 475.314 475.314;" xml:space="preserve">
<g>
	<path d="M207.809,475.314H418.99c9.305,0,16.838-7.539,16.838-16.837v-86.775h-228.02V475.314z"/>
	<path d="M40.439,458.477c0,9.298,7.532,16.837,16.836,16.837h87.966V371.702H40.439V458.477z"/>
	<path d="M449.479,142.835H373.46c32.013-11.153,53.376-36.9,53.376-68.419c0-18.37-7.693-36.942-21.107-50.954
		C391.244,8.332,371.656,0,350.569,0c-5.342,0-10.814,0.538-16.263,1.597c-34.7,6.747-61.919,32.242-78.713,73.729
		c-0.3,0.739-0.589,1.476-0.876,2.212h-34.121c-0.287-0.736-0.575-1.473-0.875-2.212c-16.794-41.487-44.013-66.982-78.715-73.729
		C135.559,0.538,130.088,0,124.745,0c-21.088,0-40.678,8.332-55.16,23.462C56.171,37.475,48.478,56.046,48.478,74.416
		c0,31.519,21.363,57.266,53.376,68.419h-76.02c-9.305,0-16.837,7.54-16.837,16.836v58.638c0,9.297,7.532,16.837,16.837,16.837
		h14.605v74.626H145.24V148.813h62.568v160.961h228.02v-74.626h13.65c9.305,0,16.838-7.54,16.838-16.837v-58.638
		C466.317,150.375,458.783,142.835,449.479,142.835z M339.492,28.269c3.744-0.728,7.47-1.097,11.076-1.097
		c29.367,0,49.095,24.429,49.095,47.244c0,26.922-26.983,47.224-62.764,47.224h-66.666
		C275.535,94.246,292.133,37.478,339.492,28.269z M138.414,121.641c-35.782,0-62.764-20.302-62.764-47.224
		c0-22.815,19.728-47.244,49.095-47.244c3.604,0,7.332,0.369,11.075,1.097c47.174,9.172,63.866,65.958,69.225,93.371H138.414z"/>
</g>
<g>
</g>
<g>
</g>
<g>
</g>
<g>
</g>
<g>
</g>
<g>
</g>
<g>
</g>
<g>
</g>
<g>
</g>
<g>
</g>
<g>
</g>
<g>
</g>
<g>
</g>
<g>
</g>
<g>
</g>
</svg>
