<svg class="happyFaceIcon" height="32px" id="Layer_1" style="enable-background:new 0 0 32 32;" version="1.1" viewBox="0 0 32 32" width="32px" xml:space="preserve" xmlns="http://www.w3.org/2000/svg" xmlns:xlink="http://www.w3.org/1999/xlink"><g transform="translate(48 144)"><path d="M-32-140c6.617,0,12,5.383,12,12s-5.383,12-12,12s-12-5.383-12-12S-38.618-140-32-140z M-32-142c-7.732,0-14,6.268-14,14   c0,7.73,6.268,14,14,14c7.732,0,14-6.27,14-14C-18-135.732-24.27-142-32-142L-32-142z M-36-135c-1.105,0-2,1.344-2,3   c0,1.658,0.895,3,2,3s2-1.342,2-3C-34-133.656-34.896-135-36-135z M-28-135c-1.105,0-2,1.344-2,3c0,1.658,0.895,3,2,3s2-1.342,2-3   C-26-133.656-26.896-135-28-135z M-23.04-125.721c0.154-0.529-0.149-1.084-0.683-1.241c-0.528-0.158-1.084,0.151-1.239,0.681   c-0.906,3.109-3.802,5.281-7.039,5.281c-3.238,0-6.133-2.172-7.04-5.281c-0.154-0.527-0.703-0.839-1.24-0.681   c-0.53,0.157-0.834,0.712-0.68,1.241c1.154,3.955,4.839,6.721,8.96,6.721S-24.195-121.766-23.04-125.721z"/></g></svg>