<?xml version="1.0" ?><svg class="LikeEmoji" style="enable-background:new 0 0 48 48;" version="1.1" viewBox="0 0 48 48" xml:space="preserve" xmlns="http://www.w3.org/2000/svg" xmlns:xlink="http://www.w3.org/1999/xlink"><g id="Icons"><circle cx="24" cy="24" r="12.244" style="fill:#5791FF;"/><path d="M30.59952,22.99401c0-0.49188-0.26361-0.8501-0.75018-0.8501c0,0-2.80334,0-2.8053,0.0022   l-1.79816,0.00531c0.10706-0.14722,0.65112-2.16833,0.61096-2.55634s-0.48523-1.98456-0.48523-1.98456   c-0.71655-0.65656-1.33026-0.59955-1.84637,0.13379V19.885c0,0-1.84631,3.09064-1.87311,3.15082   c-0.02563,0.0578-0.81622,0.55127-0.88025,0.59119l-0.19592,0.01904c-0.22791-0.40942-0.6488-0.69775-1.1507-0.69775h-0.6925   c-0.73712,0-1.33466,0.59753-1.33466,1.33459v4.177c0,0.73706,0.59753,1.33459,1.33466,1.33459h0.6925   c0.64722,0,1.16156-0.46985,1.28351-1.08112h0.73993c0.19794,0.12817,0.39358,0.25989,0.59058,0.38965   c0.1654,0.10895,0.39662,0.16091,0.61786,0.16089c0.14502-0.00001,0.29004,0,0.43512,0c0.37311,0,0.74628,0,1.11945,0h2.99908   l-0.00024-0.00037l1.29236,0.00037c0.48663,0,0.94153-0.29706,0.94153-0.78369c0-0.49188-0.04523-0.966-0.5318-0.966h0.05688   c0.49188,0,0.85059-0.44299,0.85059-0.93488c0-0.48663,0.0542-0.87579-0.43768-0.87579h0.17072   c0.48663,0,0.74573-0.42499,0.74573-0.91687c0-0.48663,0.0636-0.8775-0.42303-0.8775h0.17004   C30.5325,23.90917,30.59952,23.48065,30.59952,22.99401z" style="fill:#FFFFFF;"/><circle cx="24" cy="24" r="12.244" style="fill:none;stroke:#303030;stroke-width:0.7;stroke-linecap:round;stroke-linejoin:round;stroke-miterlimit:10;"/><path d="   M20.79997,28.7134h0.64869l0.59061,0.38961c0.08706,0.05337,0.32468,0.16092,0.61784,0.16092c0.14504,0,0.29008,0,0.43512,0   c0.37315,0,0.74629,0,1.11944,0h4.29122c0.48661,0,0.94153-0.29707,0.94153-0.78368c0-0.4919-0.04521-0.96604-0.53182-0.96604   h0.05691c0.4919,0,0.85057-0.44298,0.85057-0.93488c0-0.48661,0.0542-0.87575-0.4377-0.87575h0.17074   c0.48661,0,0.74575-0.425,0.74575-0.9169c0-0.48661,0.06355-0.8775-0.42306-0.8775h0.17007   c0.48661,0,0.55362-0.42853,0.55362-0.91514c0-0.4919-0.26357-0.85013-0.75018-0.85013l-4.60342,0.00751   c0,0,0.68137-1.89425,0.61094-2.5563c-0.04126-0.38788-0.48524-1.9846-0.48524-1.9846   c-0.30478-0.85098-1.78675-0.64011-1.84635,0.1338l0,1.13612c0,0.65709-0.17679,1.30041-0.51346,1.8647   c-0.37296,0.62512-0.86734,1.45921-1.14559,1.92908c-0.14191,0.23963-0.33419,0.44223-0.56546,0.5974l-0.54084,0.36287" style="fill:none;stroke:#303030;stroke-width:0.7;stroke-linecap:round;stroke-linejoin:round;stroke-miterlimit:10;"/><path d="   M19.42525,29.79453h-0.6925c-0.7371,0-1.33464-0.59754-1.33464-1.33464v-4.17696c0-0.7371,0.59754-1.33464,1.33464-1.33464h0.6925   c0.7371,0,1.33464,0.59754,1.33464,1.33464v4.17696C20.75989,29.19699,20.16235,29.79453,19.42525,29.79453z" style="fill:none;stroke:#303030;stroke-width:0.7;stroke-linecap:round;stroke-linejoin:round;stroke-miterlimit:10;"/></g></svg>